# Blender v2.79 (sub 0) OBJ File: 'glasses.blend'
# www.blender.org
mtllib glasses.mtl
o Cube
v 0.029848 1.000000 -0.999999
v 0.029848 1.000000 1.000001
v -0.029848 1.000000 1.000000
v -0.029848 1.000000 -1.000000
v 0.029848 1.000000 0.339450
v -0.029848 1.000000 0.339449
v 0.029848 0.403670 -1.000000
v 0.029848 0.403670 1.000000
v -0.029848 0.403670 1.000000
v -0.029848 0.403670 -1.000000
v -0.029848 0.403670 0.339449
v 0.029848 0.403670 0.339450
v -0.029848 1.000000 -0.385321
v 0.029848 1.000000 -0.385321
v 0.029848 0.403670 -0.385321
v -0.029848 0.403670 -0.385321
v 0.029848 0.882541 -0.999999
v 0.029848 0.882541 1.000001
v -0.029848 0.882541 1.000000
v -0.029848 0.882541 -1.000000
v -0.029848 0.882541 0.339449
v 0.029848 0.882541 0.339450
v 0.029848 0.882541 -0.385321
v -0.029848 0.882541 -0.385321
v -0.029848 0.700570 0.339449
v 0.029848 0.700570 0.339450
v 0.029848 0.700570 -0.385321
v -0.029848 0.700570 -0.385321
v 0.029848 0.700570 -1.000000
v 0.029848 0.700570 1.000000
v -0.029848 0.700570 1.000000
v -0.029848 0.700570 -1.000000
vt 0.879899 0.000000
vt 0.919933 0.000000
vt 0.919933 0.330275
vt 0.879899 0.330276
vt 0.919933 0.356895
vt 0.919933 0.298165
vt 0.959966 0.298165
vt 0.959966 0.356895
vt 0.959966 0.447880
vt 0.959966 0.596330
vt 0.919933 0.596330
vt 0.919933 0.447880
vt 0.839865 0.362385
vt 0.799832 0.362386
vt 0.799832 0.000000
vt 0.839865 0.000000
vt 0.478687 0.307339
vt 0.399916 0.307339
vt 0.399916 0.000000
vt 0.478687 0.000000
vt 0.600722 0.000000
vt 0.799832 0.000000
vt 0.799832 0.307339
vt 0.600722 0.307339
vt 0.799832 0.362386
vt 0.839865 0.362386
vt 0.839865 0.669725
vt 0.799832 0.669725
vt 0.600722 0.669725
vt 0.478687 0.669725
vt 1.000000 0.537601
vt 1.000000 0.596330
vt 0.959966 0.596330
vt 0.959966 0.537601
vt 0.959966 0.446615
vt 0.959966 0.298165
vt 1.000000 0.298165
vt 1.000000 0.446615
vt 0.200806 0.692661
vt 0.078772 0.692661
vt 0.078771 0.330275
vt 0.200806 0.330275
vt 0.839865 0.362386
vt 0.879899 0.362386
vt 0.879899 0.669725
vt 0.839865 0.669725
vt 0.839865 0.362385
vt 0.839865 0.000000
vt 0.879899 0.000000
vt 0.879899 0.362386
vt 0.078772 1.000000
vt 0.000000 1.000000
vt 0.000000 0.692661
vt 0.399916 0.692661
vt 0.399916 1.000000
vt 0.200807 1.000000
vt 0.959966 0.000000
vt 0.959966 0.058730
vt 0.959966 0.149715
vt 0.959966 0.298165
vt 0.919933 0.298165
vt 0.919933 0.149715
vt 0.919933 0.058729
vt 0.919933 0.000000
vt 0.959966 0.298165
vt 0.959966 0.239436
vt 0.959966 0.148450
vt 0.959966 0.000000
vt 1.000000 0.000000
vt 1.000000 0.148450
vt 1.000000 0.239436
vt 1.000000 0.298165
vt 0.478687 1.000000
vt 0.399916 1.000000
vt 0.399916 0.669725
vt 0.799832 0.669725
vt 0.799832 1.000000
vt 0.600722 1.000000
vt 0.879899 0.660551
vt 0.879899 0.330276
vt 0.919933 0.330276
vt 0.919933 0.660551
vt 0.000000 0.330275
vt 0.000000 0.000000
vt 0.078771 0.000000
vt 0.200806 0.000000
vt 0.399916 0.000000
vt 0.399916 0.330275
vn 0.0000 1.0000 0.0000
vn 0.0000 0.0000 -1.0000
vn -1.0000 0.0000 0.0000
vn -0.0000 -0.0000 1.0000
vn 1.0000 -0.0000 0.0000
vn 0.0000 -1.0000 0.0000
usemtl Material
s off
f 5/1/1 6/2/1 3/3/1 2/4/1
f 21/5/2 6/6/2 5/7/2 22/8/2 26/9/2 12/10/2 11/11/2 25/12/2
f 21/13/1 22/14/1 23/15/1 24/16/1
f 24/17/3 13/18/3 4/19/3 20/20/3 32/21/3 10/22/3 16/23/3 28/24/3
f 1/25/1 4/26/1 13/27/1 14/28/1
f 25/29/3 21/30/3 24/17/3 28/24/3
f 18/31/4 2/32/4 3/33/4 19/34/4 31/35/4 9/36/4 8/37/4 30/38/4
f 27/39/5 23/40/5 22/41/5 26/42/5
f 10/43/6 7/44/6 15/45/6 16/46/6
f 25/47/6 28/48/6 27/49/6 26/50/6
f 17/51/5 1/52/5 14/53/5 23/40/5 27/39/5 15/54/5 7/55/5 29/56/5
f 1/57/2 17/58/2 29/59/2 7/60/2 10/61/2 32/62/2 20/63/2 4/64/2
f 13/65/4 24/66/4 28/67/4 16/68/4 15/69/4 27/70/4 23/71/4 14/72/4
f 19/73/3 3/74/3 6/75/3 21/30/3 25/29/3 11/76/3 9/77/3 31/78/3
f 9/79/6 11/80/6 12/81/6 8/82/6
f 22/41/5 5/83/5 2/84/5 18/85/5 30/86/5 8/87/5 12/88/5 26/42/5
